<svg xmlns="http://www.w3.org/2000/svg" xmlns:xlink="http://www.w3.org/1999/xlink" version="1.1" x="0px" y="0px" viewBox="0 0 98 122.5" style="enable-background:new 0 0 98 98;" xml:space="preserve"><style type="text/css">
	.st0{fill-rule:evenodd;clip-rule:evenodd;}
</style><path d="M77.079,57.848c0-4.534-3.688-8.222-8.222-8.222c-4.534,0-8.222,3.689-8.222,8.222s3.689,8.222,8.222,8.222  C73.391,66.07,77.079,62.382,77.079,57.848z M68.857,63.352c-3.035,0-5.504-2.469-5.504-5.504c0-3.035,2.469-5.504,5.504-5.504  c3.035,0,5.504,2.469,5.504,5.504C74.361,60.883,71.892,63.352,68.857,63.352z M90.953,83.006l-9.303-16.114  c0.389-0.205,1.133-0.42,1.621-0.56c1.495-0.429,3.189-0.915,3.7-2.451c0.504-1.514-0.532-2.923-1.446-4.166  c-0.436-0.593-1.094-1.489-1.094-1.866s0.658-1.273,1.094-1.866c0.914-1.243,1.95-2.653,1.446-4.166  c-0.511-1.536-2.206-2.022-3.7-2.451c-0.615-0.177-1.644-0.472-1.843-0.711c-0.172-0.268-0.137-1.342-0.116-1.983  c0.05-1.538,0.107-3.281-1.18-4.224c-1.283-0.941-2.927-0.368-4.377,0.138c-0.582,0.203-1.664,0.583-1.974,0.485  c-0.301-0.107-0.928-0.999-1.302-1.531c-0.914-1.302-1.951-2.777-3.621-2.777c-1.67,0-2.707,1.475-3.621,2.776  c-0.374,0.533-1.001,1.424-1.301,1.531c-0.31,0.095-1.393-0.282-1.975-0.485c-1.45-0.506-3.094-1.078-4.377-0.139  c-1.287,0.943-1.23,2.687-1.18,4.225c0.016,0.491,0.039,1.232-0.026,1.673c-5.092-3.081-10.913-4.705-16.907-4.705  c-16.862,0-31.181,13.146-32.6,29.928c-0.032,0.379,0.096,0.754,0.354,1.034c0.258,0.28,0.62,0.439,1.001,0.439h42.994l-4.6,7.968  c-0.291,0.505-0.229,1.139,0.156,1.577c0.384,0.437,1.005,0.582,1.543,0.358l6.688-2.78l0.937,7.182  c0.075,0.578,0.511,1.043,1.082,1.157c0.089,0.018,0.178,0.026,0.266,0.026c0.479,0,0.931-0.253,1.177-0.68l8.093-14.018  c0.628,0.637,1.361,1.107,2.298,1.107c0.891,0,1.599-0.425,2.207-1.015l8.04,13.926c0.246,0.426,0.698,0.68,1.177,0.68  c0.088,0,0.177-0.008,0.266-0.026c0.571-0.114,1.007-0.579,1.082-1.157l0.937-7.182l6.688,2.78c0.537,0.224,1.159,0.079,1.543-0.358  C91.181,84.145,91.244,83.511,90.953,83.006z M9.74,72.32c1.986-14.675,14.766-25.965,29.73-25.965  c4.845,0,9.566,1.156,13.815,3.365c-0.162,0.056-0.321,0.118-0.478,0.182c-0.048,0.02-0.094,0.041-0.141,0.062  c-0.119,0.052-0.234,0.108-0.348,0.166c-0.048,0.025-0.097,0.05-0.144,0.076c-0.14,0.079-0.276,0.162-0.403,0.255  c-0.01,0.007-0.021,0.013-0.031,0.021c-0.134,0.099-0.256,0.209-0.372,0.326c-0.034,0.034-0.064,0.072-0.096,0.108  c-0.082,0.092-0.158,0.191-0.227,0.295c-0.028,0.042-0.056,0.083-0.082,0.127c-0.086,0.148-0.163,0.304-0.221,0.477  c-0.441,1.325,0.297,2.569,1.101,3.693c0.115,0.16,0.231,0.318,0.345,0.474c0.436,0.593,1.094,1.489,1.094,1.866  c0,0.377-0.658,1.273-1.094,1.866c-0.685,0.932-1.439,1.958-1.561,3.052c-0.041,0.364-0.011,0.736,0.115,1.115  c0.511,1.536,2.206,2.022,3.7,2.451c0.098,0.028,0.21,0.06,0.324,0.094c0.023,0.007,0.046,0.014,0.07,0.021  c0.111,0.033,0.226,0.068,0.34,0.104c0.014,0.005,0.028,0.009,0.043,0.013c0.119,0.038,0.236,0.078,0.349,0.118  c0.03,0.011,0.057,0.021,0.086,0.032c0.087,0.032,0.167,0.065,0.242,0.097c0.019,0.008,0.039,0.016,0.057,0.025l-2.805,4.858  l-0.362,0.626H9.74z M58.118,85.013l-0.647-4.964c-0.055-0.419-0.302-0.789-0.668-1.001c-0.209-0.121-0.444-0.182-0.68-0.182  c-0.177,0-0.354,0.035-0.522,0.104l-4.623,1.922l5.51-9.543c0,0.002,0.001,0.003,0.001,0.005c0.021,0.115,0.055,0.224,0.085,0.335  c0.019,0.07,0.031,0.143,0.054,0.211c0.039,0.118,0.094,0.227,0.145,0.338c0.026,0.055,0.043,0.114,0.072,0.168  c0.071,0.13,0.159,0.249,0.252,0.366c0.022,0.028,0.037,0.061,0.061,0.088c0.062,0.073,0.144,0.134,0.217,0.201  c0.024,0.024,0.037,0.054,0.062,0.076c0.047,0.041,0.095,0.079,0.146,0.116c0,0,0.001,0,0.001,0  c0.001,0.001,0.002,0.002,0.004,0.003c0.002,0.001,0.004,0.003,0.006,0.004c0.002,0.001,0.002,0.001,0.003,0.002  c0.001,0.001,0.002,0.002,0.003,0.002c0.078,0.055,0.16,0.101,0.245,0.138c1.242,0.699,2.76,0.183,4.114-0.289  c0.073-0.025,0.153-0.053,0.239-0.083c0.602-0.207,1.469-0.484,1.735-0.402c0.001,0,0.002,0.001,0.002,0.001  c0.044,0.016,0.095,0.052,0.151,0.097c0.017,0.014,0.036,0.032,0.055,0.049c0.043,0.039,0.087,0.082,0.134,0.132  c0.02,0.021,0.04,0.042,0.061,0.065c0.056,0.063,0.114,0.13,0.173,0.203c0.01,0.012,0.02,0.023,0.03,0.036  c0.075,0.093,0.15,0.191,0.225,0.291L58.118,85.013z M68.874,74.219c-0.328-0.078-1.034-1.083-1.413-1.623  c-0.748-1.065-1.522-2.166-2.667-2.548c-0.153-0.051-0.309-0.086-0.466-0.111c-0.052-0.008-0.105-0.008-0.157-0.014  c-0.106-0.011-0.212-0.022-0.32-0.023c-0.01,0-0.02-0.002-0.03-0.002c-0.027,0-0.054,0.006-0.081,0.007  c-0.172,0.004-0.346,0.018-0.521,0.043c-0.05,0.007-0.1,0.013-0.15,0.022c-0.202,0.034-0.405,0.077-0.609,0.13  c-0.021,0.006-0.043,0.013-0.064,0.018c-0.192,0.052-0.383,0.11-0.575,0.172c-0.057,0.018-0.114,0.037-0.171,0.056  c-0.195,0.065-0.39,0.132-0.584,0.2c-0.567,0.197-1.483,0.514-1.86,0.493c-0.051-0.13-0.079-0.349-0.092-0.603  c-0.022-0.424-0.005-0.946,0.007-1.321c0.003-0.101,0.006-0.202,0.009-0.302c0-0.001,0-0.002,0-0.002c0-0.003,0-0.006,0-0.009  c0.003-0.112,0.005-0.224,0.007-0.336c0.001-0.046,0.001-0.091,0.002-0.136c0.002-0.208,0.001-0.414-0.008-0.618  c0-0.005,0-0.01,0-0.016c0-0.001,0-0.002,0-0.003s0-0.002,0-0.003c0-0.006-0.001-0.011-0.001-0.017  c-0.001-0.031-0.004-0.063-0.005-0.094c-0.002-0.039-0.004-0.078-0.007-0.116c0-0.001,0-0.002,0-0.004c0-0.001,0-0.002,0-0.004  c-0.004-0.05-0.008-0.101-0.012-0.151c-0.002-0.022-0.004-0.043-0.008-0.064c-0.001-0.018-0.003-0.035-0.005-0.053  c-0.007-0.061-0.018-0.121-0.027-0.181c-0.006-0.045-0.014-0.089-0.022-0.133c-0.02-0.114-0.044-0.226-0.071-0.337  c-0.005-0.02-0.007-0.046-0.012-0.066c-0.018-0.068-0.038-0.134-0.06-0.199c-0.001-0.002-0.001-0.003-0.001-0.005  c0-0.001-0.001-0.003-0.001-0.004c0,0,0,0,0-0.001c-0.098-0.293-0.232-0.57-0.417-0.822c-0.72-0.983-2.025-1.357-3.287-1.72  c-0.562-0.161-1.583-0.454-1.856-0.703c0.063-0.36,0.671-1.186,1.041-1.691c0.698-0.949,1.417-1.927,1.586-3.007  c0.024-0.154,0.037-0.311,0.037-0.469c0-1.269-0.825-2.391-1.622-3.476c-0.371-0.505-0.979-1.331-1.042-1.691  c0.179-0.163,0.679-0.345,1.161-0.497c0.253-0.079,0.501-0.151,0.694-0.206c0.007-0.002,0.014-0.004,0.021-0.006  c0.321-0.092,0.643-0.186,0.959-0.289c0.022-0.007,0.043-0.016,0.066-0.023c0.307-0.103,0.605-0.218,0.886-0.351  c0.014-0.006,0.029-0.01,0.043-0.017c0.011-0.006,0.02-0.015,0.031-0.021c0.507-0.251,0.957-0.567,1.283-1.012  c0.727-0.992,0.682-2.357,0.639-3.677c-0.019-0.6-0.052-1.577,0.085-1.924c0.368-0.028,1.294,0.296,1.86,0.493  c1.254,0.437,2.55,0.89,3.729,0.497c1.145-0.381,1.919-1.483,2.667-2.548c0.373-0.531,1.062-1.511,1.396-1.618  c0.335,0.106,1.024,1.087,1.397,1.618c0.748,1.065,1.522,2.166,2.667,2.548c1.179,0.392,2.475-0.06,3.729-0.497  c0.567-0.197,1.486-0.522,1.86-0.493c0.136,0.347,0.104,1.324,0.085,1.924c-0.043,1.32-0.087,2.685,0.639,3.677  c0.721,0.983,2.025,1.357,3.287,1.719c0.562,0.161,1.583,0.455,1.856,0.704c-0.063,0.359-0.671,1.186-1.042,1.691  c-0.797,1.085-1.622,2.207-1.622,3.476s0.825,2.391,1.622,3.476c0.371,0.505,0.979,1.331,1.042,1.691  c-0.273,0.249-1.294,0.542-1.856,0.703c-1.262,0.362-2.567,0.737-3.287,1.719c-0.23,0.313-0.376,0.667-0.476,1.042  c-0.004,0.013-0.012,0.024-0.016,0.038c-0.005,0.021-0.007,0.044-0.012,0.065c-0.042,0.177-0.077,0.358-0.1,0.544  c-0.001,0.005-0.002,0.009-0.002,0.013c-0.024,0.196-0.036,0.397-0.044,0.6c-0.002,0.054-0.003,0.107-0.004,0.161  c-0.003,0.157-0.005,0.315-0.003,0.474c0.001,0.052,0.001,0.103,0.002,0.156c0.004,0.195,0.009,0.39,0.016,0.585  c0.012,0.365,0.028,0.868,0.008,1.285c-0.013,0.268-0.04,0.502-0.093,0.638c-0.372,0.027-1.294-0.296-1.86-0.493  c-0.941-0.328-1.905-0.664-2.826-0.647c-0.307,0.006-0.609,0.051-0.903,0.149c-0.429,0.143-0.806,0.387-1.15,0.693  c-0.114,0.102-0.225,0.211-0.333,0.325c-0.43,0.456-0.811,0.998-1.185,1.53l-0.02,0.028C69.85,73.17,69.164,74.142,68.874,74.219z   M81.969,78.969c-0.389-0.162-0.834-0.133-1.201,0.078c-0.366,0.212-0.614,0.582-0.668,1.001l-0.647,4.965L72.87,73.611  c0.011-0.015,0.022-0.03,0.034-0.046c0.059-0.08,0.119-0.158,0.178-0.235c0.017-0.022,0.034-0.045,0.051-0.066  c0.075-0.095,0.15-0.185,0.221-0.267c0.015-0.017,0.029-0.031,0.044-0.048c0.057-0.063,0.111-0.117,0.162-0.165  c0.018-0.017,0.036-0.033,0.053-0.047c0.061-0.051,0.119-0.093,0.166-0.11c0.31-0.096,1.394,0.282,1.975,0.485  c1.355,0.472,2.876,0.988,4.116,0.288c0.087-0.049,0.177-0.088,0.261-0.15c0.008-0.006,0.012-0.013,0.02-0.018  c0.146-0.109,0.275-0.228,0.387-0.357c0.042-0.048,0.073-0.102,0.11-0.152c0.069-0.092,0.139-0.184,0.195-0.283  c0.036-0.063,0.062-0.131,0.093-0.197c0.044-0.094,0.089-0.188,0.124-0.287c0.026-0.073,0.045-0.148,0.066-0.223  c0.019-0.068,0.044-0.133,0.06-0.203l5.404,9.36L81.969,78.969z M39.47,37.276c8.217,0,14.901-6.685,14.901-14.901  S47.687,7.474,39.47,7.474s-14.901,6.685-14.901,14.901S31.254,37.276,39.47,37.276z M39.47,10.192  c6.718,0,12.183,5.465,12.183,12.183S46.188,34.558,39.47,34.558s-12.183-5.465-12.183-12.183S32.752,10.192,39.47,10.192z"/><text x="0" y="113" fill="#000000" font-size="5px" font-weight="bold" font-family="'Helvetica Neue', Helvetica, Arial-Unicode, Arial, Sans-serif">Created by Tri Retno Muji Rahayu</text><text x="0" y="118" fill="#000000" font-size="5px" font-weight="bold" font-family="'Helvetica Neue', Helvetica, Arial-Unicode, Arial, Sans-serif">from the Noun Project</text></svg>