<svg xmlns="http://www.w3.org/2000/svg" data-name="Layer 1" viewBox="0 0 100 125" x="0px" y="0px"><defs><style>.cls-1{fill-rule:evenodd;}</style></defs><title>a</title><path class="cls-1" d="M42.89,7.4A12.556,12.556,0,1,0,55.446,19.953,12.557,12.557,0,0,0,42.89,7.4ZM70.237,52.956l1.783,3.8,4.167.524a1.2,1.2,0,0,1,.618,2.11L73.8,62.208l.79,4.126a1.2,1.2,0,0,1-1.75,1.272l-3.68-2.026-3.679,2.026a1.2,1.2,0,0,1-1.75-1.272l.79-4.126-3.064-2.874a1.2,1.2,0,0,1,.674-2.056v0l4.167-.524,1.783-3.8a1.194,1.194,0,0,1,2.161,0Zm-.1,5.407-.985-2.1-.942,2.006a1.2,1.2,0,0,1-.978.774l-2.29.287,1.652,1.55a1.2,1.2,0,0,1,.391,1.128l-.435,2.271,2.014-1.108a1.2,1.2,0,0,1,1.164-.008l2.027,1.116-.435-2.271h0a1.194,1.194,0,0,1,.355-1.095l1.687-1.583-2.29-.287v0a1.19,1.19,0,0,1-.937-.679ZM59.017,77.543,55.106,87.4l4.978-1.8a1.193,1.193,0,0,1,1.467.586h0l2.39,4.713,4.11-10.358C66.231,80,64.78,78.107,63.6,77.713c-1.049-.349-3.025.139-4.58-.17Zm11.663,2.85L70.44,81l3.93,9.9,2.39-4.713h0a1.194,1.194,0,0,1,1.468-.586l4.978,1.8L79.3,77.543c-1.554.309-3.531-.179-4.58.17-1.079.359-2.444,2.017-4.036,2.68Zm-1.524,3.839,3.949,9.951a1.2,1.2,0,0,0,2.2.159l3.11-6.135,6.474,2.334A1.2,1.2,0,0,0,86.4,88.978L81.388,76.347c1.239-1.461,1.214-3.906,1.973-4.941.878-1.2,3.728-1.9,4.484-4.173s-1.086-4.555-1.086-6.221,1.841-3.953,1.086-6.222-3.605-2.974-4.484-4.173-.676-4.109-2.572-5.5-4.626-.326-6.073-.807-3.089-3-5.56-3c-1.711,0-2.936,1.147-4.191,2.136a24.2,24.2,0,0,0-15.436-5.579H36.252A24.347,24.347,0,0,0,11.973,62.15V74.625h0a1.194,1.194,0,0,0,1.2,1.193l43.225-.27a4.123,4.123,0,0,0,.524.8L51.913,88.978a1.2,1.2,0,0,0,1.511,1.563L59.9,88.207l3.111,6.135a1.2,1.2,0,0,0,2.2-.159l3.948-9.951ZM55.617,73.167c-.479-1.843-.649-1.986-2.3-3.032a5.868,5.868,0,0,1-2.846-2.9c-.755-2.269,1.086-4.555,1.086-6.221s-1.841-3.953-1.086-6.222,3.6-2.974,4.484-4.173.676-4.109,2.572-5.5c1.425-1.045,3.174-.7,4.83-.675a21.681,21.681,0,0,0-12.825-4.176H36.252A21.95,21.95,0,0,0,14.369,62.15V73.424l41.248-.257ZM71.471,45.01c-2.148-1.729-2.481-1.729-4.629,0-2.1,1.691-2.8,1.921-5.493,1.785-2.565-.129-2.73-.012-3.369,2.463-.678,2.624-1.1,3.2-3.393,4.651-2.21,1.4-2.272,1.605-1.357,4.1.963,2.626.963,3.38,0,6.006-.915,2.494-.853,2.7,1.357,4.1,2.29,1.448,2.715,2.028,3.393,4.652.639,2.475.8,2.592,3.369,2.463,2.7-.136,3.391.093,5.493,1.785,2.148,1.728,2.481,1.728,4.629,0,2.1-1.692,2.8-1.921,5.493-1.785,2.564.129,2.73.012,3.369-2.463.678-2.624,1.1-3.2,3.393-4.652,2.21-1.4,2.272-1.605,1.357-4.1-.963-2.626-.963-3.38,0-6.006.915-2.495.853-2.7-1.357-4.1-2.291-1.447-2.715-2.027-3.393-4.651-.639-2.475-.8-2.592-3.369-2.463-2.7.136-3.391-.094-5.493-1.785Zm-2.315,2.8A13.207,13.207,0,1,0,82.363,61.012,13.207,13.207,0,0,0,69.156,47.805ZM76.8,53.367a10.811,10.811,0,1,0,0,15.289,10.811,10.811,0,0,0,0-15.289ZM32.318,9.381a14.951,14.951,0,1,1,0,21.144A14.951,14.951,0,0,1,32.318,9.381Z"/><text x="0" y="115" fill="#000000" font-size="5px" font-weight="bold" font-family="'Helvetica Neue', Helvetica, Arial-Unicode, Arial, Sans-serif">Created by HAZHA</text><text x="0" y="120" fill="#000000" font-size="5px" font-weight="bold" font-family="'Helvetica Neue', Helvetica, Arial-Unicode, Arial, Sans-serif">from the Noun Project</text></svg>