<svg xmlns="http://www.w3.org/2000/svg" data-name="Layer 1" viewBox="0 0 100 125" x="0px" y="0px"><title>5</title><path d="M47.93169,55.89a14.70664,14.70664,0,1,0,7.95881-7.95891A14.61013,14.61013,0,0,0,47.93169,55.89Zm9.33671-4.63277a11.10635,11.10635,0,1,1-6.01062,6.01069A11.03891,11.03891,0,0,1,57.2684,51.25725ZM30.79925,40.90579A10.10733,10.10733,0,1,0,20.692,30.79846,10.11872,10.11872,0,0,0,30.79925,40.90579Zm0-16.61508a6.50775,6.50775,0,1,1-6.50767,6.50775A6.51514,6.51514,0,0,1,30.79925,24.29071ZM7.56245,36.38776h4.90224a19.25458,19.25458,0,0,0,1.41794,3.41989l-3.46916,3.46921a2.349,2.349,0,0,0-.21484,3.0571,25.77331,25.77331,0,0,0,5.06629,5.06538,2.34535,2.34535,0,0,0,3.058-.21631l3.46721-3.46774A19.20508,19.20508,0,0,0,25.21,49.13374v4.90181a2.3455,2.3455,0,0,0,2.01216,2.31687,26.09087,26.09087,0,0,0,3.57707.2456c.20306,0,.40557-.01617.60869-.02087l4.81941,2.0062a25.289,25.289,0,0,0-.00049,5.87837l-6.57212,2.72556a2.521,2.521,0,0,0-1.53658,2.98678,34.90589,34.90589,0,0,0,1.52926,4.54439,33.71773,33.71773,0,0,0,2.123,4.26168,2.52393,2.52393,0,0,0,3.16643,1.08154l6.61851-2.73631a25.4982,25.4982,0,0,0,4.15518,4.15573l-2.74554,6.621a2.53376,2.53376,0,0,0,1.05222,3.14743,34.88854,34.88854,0,0,0,8.85186,3.67086,2.54622,2.54622,0,0,0,2.97259-1.49315l2.74408-6.61712a25.271,25.271,0,0,0,5.87634.00048l2.725,6.56879A2.51906,2.51906,0,0,0,70.17436,94.919a34.98635,34.98635,0,0,0,4.54482-1.5288,33.8756,33.8756,0,0,0,4.26114-2.123,2.52467,2.52467,0,0,0,1.08152-3.16648l-2.73627-6.61908a25.49476,25.49476,0,0,0,4.15567-4.15474l6.62095,2.74509a2.53313,2.53313,0,0,0,3.14739-1.05175,34.92006,34.92006,0,0,0,3.67229-8.8549,2.54619,2.54619,0,0,0-1.4946-2.96969l-6.617-2.74412a25.30334,25.30334,0,0,0,.00049-5.8769L93.37942,55.85a2.52,2.52,0,0,0,1.54-2.98825,35.07331,35.07331,0,0,0-1.52927-4.5439,33.72811,33.72811,0,0,0-2.12251-4.26022,2.52492,2.52492,0,0,0-3.16692-1.083l-6.619,2.7363A25.51459,25.51459,0,0,0,77.327,41.55519l2.74652-6.62347a2.53682,2.53682,0,0,0-1.0532-3.145,34.91021,34.91021,0,0,0-8.85381-3.67135A2.54417,2.54417,0,0,0,67.19591,29.609l-2.74408,6.61761a25.30686,25.30686,0,0,0-5.87731-.00049L56.57743,31.416c.00482-.20612.02106-.41131.02106-.61749a26.1055,26.1055,0,0,0-.24511-3.57955A2.34769,2.34769,0,0,0,54.036,25.20916H49.1343a19.22013,19.22013,0,0,0-1.41843-3.41989l3.4677-3.46725a2.34519,2.34519,0,0,0,.21679-3.05808,25.79284,25.79284,0,0,0-5.06776-5.06782,2.35066,2.35066,0,0,0-3.05706.21777l-3.46721,3.46774a19.262,19.262,0,0,0-3.41985-1.41844V7.56138A2.34508,2.34508,0,0,0,34.37681,5.2445,26.31078,26.31078,0,0,0,27.22316,5.244,2.34636,2.34636,0,0,0,25.21,7.56138v4.90229a19.22439,19.22439,0,0,0-3.41985,1.418L18.321,10.41242a2.34843,2.34843,0,0,0-3.05609-.21533,25.7675,25.7675,0,0,0-5.06629,5.06685,2.34794,2.34794,0,0,0,.2163,3.05808l3.4677,3.46725a19.25458,19.25458,0,0,0-1.41794,3.41989H7.56245a2.34549,2.34549,0,0,0-2.31684,2.01219,26.19153,26.19153,0,0,0-.00049,7.15325A2.34636,2.34636,0,0,0,7.56245,36.38776Zm47.13691-.10626,1.63986,3.949,1.41989-.249a21.79685,21.79685,0,0,1,7.51057.00049l1.4199.24707,3.474-8.37883a31.30446,31.30446,0,0,1,6.22106,2.57956l-3.47112,8.37,1.1782.82958a21.96817,21.96817,0,0,1,5.31531,5.31587l.82908,1.17626L88.609,46.66013a31.24168,31.24168,0,0,1,2.57465,6.204l-8.37726,3.4736.249,1.42088a21.76172,21.76172,0,0,1-.00049,7.51068l-.24707,1.4199,8.37873,3.47409a31.29382,31.29382,0,0,1-2.58,6.22065L80.23664,72.9133l-.83006,1.17821a21.95747,21.95747,0,0,1-5.31531,5.31538L72.915,80.236l3.46135,8.373a31.25426,31.25426,0,0,1-6.20348,2.57468l-3.47405-8.37736-1.42086.249a21.74626,21.74626,0,0,1-7.51009-.00049L56.348,82.80773,52.874,91.18607a31.28712,31.28712,0,0,1-6.221-2.57956l3.47111-8.37-1.1782-.83007a21.94679,21.94679,0,0,1-5.31531-5.31489l-.82859-1.17675-8.37336,3.46139a31.31386,31.31386,0,0,1-2.57513-6.204l8.37774-3.4736-.249-1.42088a21.7589,21.7589,0,0,1,.00049-7.51019l.24707-1.41795-3.94932-1.64342a2.3061,2.3061,0,0,0,.10809-.67052V49.13374a19.22014,19.22014,0,0,0,3.41985-1.41845L43.27554,51.183a2.3482,2.3482,0,0,0,3.059.21631A25.7944,25.7944,0,0,0,51.39987,46.334a2.34677,2.34677,0,0,0-.2163-3.059l-3.4677-3.46726a19.22013,19.22013,0,0,0,1.41843-3.41989H54.036A2.30291,2.30291,0,0,0,54.69936,36.2815ZM8.68743,28.80873h6.59946l.31689-1.40379a15.70119,15.70119,0,0,1,2.05171-4.94722l.77-1.21727-4.67031-4.66939A22.15271,22.15271,0,0,1,16.572,13.75419l4.66982,4.67037,1.21677-.77a15.68212,15.68212,0,0,1,4.94716-2.05174l1.40378-.31689V8.68637a22.7548,22.7548,0,0,1,3.9794,0v6.6l1.40378.3164a15.68694,15.68694,0,0,1,4.94716,2.05174l1.21677.77,4.6703-4.67037a22.21237,22.21237,0,0,1,2.81635,2.81687l-4.66982,4.66939.76951,1.21727a15.67856,15.67856,0,0,1,2.05172,4.94673l.3164,1.40428h6.60044c.0581.6582.0874,1.32421.0874,1.98973,0,.666-.0293,1.332-.0874,1.98973H46.31112l-.3164,1.40428A15.67856,15.67856,0,0,1,43.943,39.1392l-.76951,1.21728,4.66982,4.66939A22.14887,22.14887,0,0,1,45.027,47.84273l-4.6703-4.67036-1.21677.77a15.67343,15.67343,0,0,1-4.94667,2.05174l-1.40427.3164v6.6a22.7548,22.7548,0,0,1-3.9794,0v-6.6l-1.40427-.3164a15.6801,15.6801,0,0,1-4.94667-2.05174l-1.21677-.77L16.572,47.84273a22.213,22.213,0,0,1-2.81683-2.81638l4.67031-4.66987-.77-1.21728A15.70119,15.70119,0,0,1,15.60378,34.192l-.31689-1.40379H8.68743c-.05811-.65918-.08789-1.32518-.08789-1.98973S8.62932,29.46791,8.68743,28.80873Z"/><text x="0" y="115" fill="#000000" font-size="5px" font-weight="bold" font-family="'Helvetica Neue', Helvetica, Arial-Unicode, Arial, Sans-serif">Created by Hrbon</text><text x="0" y="120" fill="#000000" font-size="5px" font-weight="bold" font-family="'Helvetica Neue', Helvetica, Arial-Unicode, Arial, Sans-serif">from the Noun Project</text></svg>