<svg xmlns="http://www.w3.org/2000/svg" xmlns:xlink="http://www.w3.org/1999/xlink" version="1.1" x="0px" y="0px" viewBox="0 0 53 66.25" style="enable-background:new 0 0 53 53;" xml:space="preserve"><g><path d="M2.7495117,29.5v17c0,2.0678711,1.6826172,3.75,3.75,3.75h17c1.230896,0,2.3157959-0.604248,3-1.5231934   c0.6842041,0.9189453,1.769104,1.5231934,3,1.5231934h17.0009766c2.0673828,0,3.75-1.6821289,3.75-3.75v-17   c0-2.0678711-1.6826172-3.75-3.75-3.75h-8.519165c0.4758911-0.6286621,0.769165-1.4025269,0.769165-2.25v-17   c0-2.0678711-1.6826172-3.75-3.75-3.75H17.9995117c-2.0673828,0-3.75,1.6821289-3.75,3.75v17   c0,0.8474731,0.2932739,1.6213379,0.769165,2.25h-8.519165C4.4321289,25.75,2.7495117,27.4321289,2.7495117,29.5z    M23.4995117,48.75h-17c-1.2402344,0-2.25-1.0092773-2.25-2.25v-17c0-1.2407227,1.0097656-2.25,2.25-2.25h11.5h5.5   c1.2402344,0,2.25,1.0092773,2.25,2.25v17C25.7495117,47.7407227,24.7397461,48.75,23.4995117,48.75z M26.4803467,27.25h0.0383301   c-0.0060425,0.0079956-0.0131836,0.0151367-0.019165,0.0231934C26.4935303,27.2651367,26.4863892,27.2579956,26.4803467,27.25z    M48.7504883,29.5v17c0,1.2407227-1.0097656,2.25-2.25,2.25H29.4995117c-1.2402344,0-2.25-1.0092773-2.25-2.25v-17   c0-1.2407227,1.0097656-2.25,2.25-2.25h5.5009766h11.5C47.7407227,27.25,48.7504883,28.2592773,48.7504883,29.5z M15.7495117,23.5   v-17c0-1.2407227,1.0097656-2.25,2.25-2.25h17.0009766c1.2402344,0,2.25,1.0092773,2.25,2.25v17   c0,1.2407227-1.0097656,2.25-2.25,2.25h-5.5009766h-6h-5.5C16.7592773,25.75,15.7495117,24.7407227,15.7495117,23.5z"/><path d="M19.9702148,35.2197266c0-1.9467773-1.5839844-3.5302734-3.5302734-3.5302734h-4.2753906h-1.3847656   c-0.4140625,0-0.75,0.3359375-0.75,0.75s0.3359375,0.75,0.75,0.75h0.6347656V38v4.8105469h-0.6347656   c-0.4140625,0-0.75,0.3359375-0.75,0.75s0.3359375,0.75,0.75,0.75h1.3847656h4.2753906   c1.9462891,0,3.5302734-1.5834961,3.5302734-3.5302734c0-1.1342163-0.5469971-2.1339722-1.3807373-2.7802734   C19.4232178,37.3536987,19.9702148,36.3539429,19.9702148,35.2197266z M18.4702148,40.7802734   c0,1.1196289-0.9111328,2.0302734-2.0302734,2.0302734h-3.5253906V38.75h3.5253906   C17.559082,38.75,18.4702148,39.6606445,18.4702148,40.7802734z M12.9145508,37.25v-4.0605469h3.5253906   c1.1191406,0,2.0302734,0.9106445,2.0302734,2.0302734S17.559082,37.25,16.4399414,37.25H12.9145508z"/><path d="M32.8930664,38.0053711c0,3.4765625,2.8339844,6.3051758,6.3164063,6.3051758   c1.2792969,0,2.515625-0.3862305,3.5732422-1.1166992c0.3408203-0.2353516,0.4267578-0.7021484,0.1914063-1.043457   c-0.234375-0.3398438-0.7021484-0.4272461-1.0429688-0.190918c-0.8066406,0.5566406-1.7480469,0.8510742-2.7216797,0.8510742   c-2.65625,0-4.8164063-2.1557617-4.8164063-4.8051758c0-2.6552734,2.1601563-4.815918,4.8164063-4.815918   c0.9736328,0,1.9150391,0.2944336,2.7207031,0.8515625c0.34375,0.2353516,0.8095703,0.1503906,1.0439453-0.190918   c0.2353516-0.3408203,0.1494141-0.8081055-0.1904297-1.043457c-1.0585938-0.730957-2.2939453-1.1171875-3.5742188-1.1171875   C35.7270508,31.6894531,32.8930664,34.5229492,32.8930664,38.0053711z"/><path d="M29.4570923,17.034668l1.9252319,3.8603516c0.1845703,0.3710938,0.6357422,0.5209961,1.0058594,0.3369141   c0.3701172-0.1850586,0.5214844-0.6352539,0.3359375-1.0058594l-2.0842285-4.1794434   c-0.0178223-0.0525513-0.0436401-0.0981445-0.0721436-0.1447144l-3.3895264-6.796936   c-0.1269531-0.2543945-0.3867188-0.4155273-0.6708984-0.4155273s-0.5439453,0.1606445-0.6708984,0.4145508l-3.3840332,6.7680054   c-0.0405273,0.0596313-0.0736084,0.1212769-0.0957031,0.1914673l-2.0808105,4.1616211   c-0.1855469,0.3706055-0.0351563,0.8208008,0.3359375,1.0063477c0.1074219,0.0537109,0.2216797,0.0791016,0.3339844,0.0791016   c0.2753906,0,0.5400391-0.1518555,0.671875-0.4145508l1.930542-3.8613281H29.4570923z M26.5063477,11.1181641l2.2026367,4.4165039   h-4.4107666L26.5063477,11.1181641z"/></g><text x="0" y="68" fill="#000000" font-size="5px" font-weight="bold" font-family="'Helvetica Neue', Helvetica, Arial-Unicode, Arial, Sans-serif">Created by VectorsLab</text><text x="0" y="73" fill="#000000" font-size="5px" font-weight="bold" font-family="'Helvetica Neue', Helvetica, Arial-Unicode, Arial, Sans-serif">from the Noun Project</text></svg>