<svg xmlns="http://www.w3.org/2000/svg" xmlns:xlink="http://www.w3.org/1999/xlink" version="1.1" x="0px" y="0px" viewBox="0 0 64 80" style="enable-background:new 0 0 64 64;" xml:space="preserve"><path d="M61.3828,20.0762l-29.0005-12c-0.2451-0.1016-0.5195-0.1016-0.7646,0l-29,12C2.2437,20.2305,2,20.5952,2,21  c0,0.4043,0.2437,0.769,0.6172,0.9238L14,26.6341V44c0,0.2461,0.0908,0.4834,0.2549,0.667C14.4863,44.9253,20.0605,51,32,51  s17.5137-6.0747,17.7451-6.333C49.9092,44.4834,50,44.2461,50,44V26.6341l3-1.2415v19.4222l-2.9326,7.6031  c-0.084,0.2178-0.0898,0.4585-0.0146,0.6797C50.0928,53.2163,51.0654,56,54,56s3.9072-2.7837,3.9473-2.9023  c0.0752-0.2212,0.0693-0.4619-0.0146-0.6797L55,44.8148V24.5651l6.3828-2.6412C61.7568,21.769,62,21.4043,62,21  C62,20.5952,61.7559,20.2305,61.3828,20.0762z M54,54c-1.0918,0-1.6758-0.8018-1.918-1.2495L54,47.7788l1.917,4.9707  C55.6738,53.2012,55.0898,54,54,54z M48,27.4653v16.123C46.8379,44.6934,41.6855,49,32,49c-9.6372,0-14.8325-4.314-16-5.4141  V27.4653l15.6177,6.459C31.7402,33.9746,31.8701,34,32,34s0.2598-0.0254,0.3823-0.0757L48,27.4653z M53.9056,22.8542l-18.9429-4.223  C34.7785,17.1523,33.528,16,32,16c-1.6543,0-3,1.3457-3,3s1.3457,3,3,3c1.0707,0,2.0053-0.5682,2.5363-1.4146l16.1506,3.6005  L32,31.918L5.6143,21.0005L32,10.082l26.3857,10.9185L53.9056,22.8542z M32,20c-0.5513,0-1-0.4487-1-1s0.4487-1,1-1s1,0.4487,1,1  S32.5513,20,32,20z"/><text x="0" y="79" fill="#000000" font-size="5px" font-weight="bold" font-family="'Helvetica Neue', Helvetica, Arial-Unicode, Arial, Sans-serif">Created by Icon Lauk</text><text x="0" y="84" fill="#000000" font-size="5px" font-weight="bold" font-family="'Helvetica Neue', Helvetica, Arial-Unicode, Arial, Sans-serif">from the Noun Project</text></svg>