<svg xmlns="http://www.w3.org/2000/svg" xmlns:xlink="http://www.w3.org/1999/xlink" xmlns:serif="http://www.serif.com/" viewBox="0 0 48 60" version="1.1" xml:space="preserve" style="" x="0px" y="0px" fill-rule="evenodd" clip-rule="evenodd" stroke-linejoin="round" stroke-miterlimit="2"><g transform="matrix(1,0,0,1,-432,-48)"><g><g transform="matrix(1,0,0,1,384,-196)"><path d="M50,261L54,261C54.552,261 55,260.552 55,260C55,259.448 54.552,259 54,259L50,259C49.448,259 49,259.448 49,260C49,260.552 49.448,261 50,261Z"/></g><g transform="matrix(0.866025,0.5,-0.5,0.866025,523.646,-197.167)"><path d="M50,261L54,261C54.552,261 55,260.552 55,260C55,259.448 54.552,259 54,259L50,259C49.448,259 49,259.448 49,260C49,260.552 49.448,261 50,261Z"/></g><g transform="matrix(0.866025,-0.5,0.5,0.866025,263.646,-125.167)"><path d="M50,261L54,261C54.552,261 55,260.552 55,260C55,259.448 54.552,259 54,259L50,259C49.448,259 49,259.448 49,260C49,260.552 49.448,261 50,261Z"/></g><g transform="matrix(1,0,0,1,384,-196)"><path d="M90,261L94,261C94.552,261 95,260.552 95,260C95,259.448 94.552,259 94,259L90,259C89.448,259 89,259.448 89,260C89,260.552 89.448,261 90,261Z"/></g><g transform="matrix(0.866025,0.5,-0.5,0.866025,523.646,-197.167)"><path d="M90,261L94,261C94.552,261 95,260.552 95,260C95,259.448 94.552,259 94,259L90,259C89.448,259 89,259.448 89,260C89,260.552 89.448,261 90,261Z"/></g><g transform="matrix(0.866025,-0.5,0.5,0.866025,263.646,-125.167)"><path d="M90,261L94,261C94.552,261 95,260.552 95,260C95,259.448 94.552,259 94,259L90,259C89.448,259 89,259.448 89,260C89,260.552 89.448,261 90,261Z"/></g><path d="M447.764,82C447.289,82.531 447,83.232 447,84C447,84.768 447.289,85.469 447.764,86C447.289,86.531 447,87.232 447,88C447,89.657 448.343,91 450,91L451,91L451,92C451,93.657 452.343,95 454,95L458,95C459.657,95 461,93.657 461,92L461,91L462,91C463.657,91 465,89.657 465,88C465,88 465,88 465,88C465,87.232 464.711,86.531 464.236,86C464.711,85.469 465,84.768 465,84C465,84 465,84 465,84C465,83.232 464.711,82.531 464.236,82C464.727,81.452 465,80.74 465,80C465,79.176 465,78.224 465.02,77.41C465.02,77.402 465.02,77.394 465.02,77.386C465.02,76.536 465.383,75.727 466.017,75.161C466.018,75.161 466.019,75.16 466.02,75.159C469.077,72.412 471,68.429 471,64C471,55.721 464.279,49 456,49C447.721,49 441,55.721 441,64C441,68.431 442.925,72.416 445.996,75.148C446.635,75.716 447,76.531 447,77.386L447,80C447,80.74 447.273,81.452 447.764,82ZM459,91L459,92C459,92.552 458.552,93 458,93C458,93 454,93 454,93C453.448,93 453,92.552 453,92L453,91L459,91ZM463,88C463,87.448 462.552,87 462,87C462,87 450,87 450,87C449.448,87 449,87.448 449,88C449,88.552 449.448,89 450,89C450,89 462,89 462,89C462.552,89 463,88.552 463,88ZM463,84C463,83.448 462.552,83 462,83C462,83 450,83 450,83C449.448,83 449,83.448 449,84C449,84.552 449.448,85 450,85C450,85 462,85 462,85C462.552,85 463,84.552 463,84ZM449,80L449,77.386C449,75.96 448.391,74.602 447.326,73.654C447.326,73.654 447.326,73.653 447.326,73.653C444.666,71.287 443,67.837 443,64C443,56.825 448.825,51 456,51C463.175,51 469,56.825 469,64C469,67.839 467.332,71.291 464.683,73.671C463.627,74.613 463.021,75.965 463.02,77.384C463,78.199 463,79.164 463,80C463,80 463,80 463,80C463,80.265 462.895,80.52 462.707,80.707C462.52,80.895 462.265,81 462,81C462,81 450,81 450,81C449.735,81 449.48,80.895 449.293,80.707C449.105,80.52 449,80.265 449,80Z"/><g transform="matrix(0.888889,0,0,0.888889,50.6667,7.11111)"><path d="M456,56.125C460.346,56.125 463.875,59.654 463.875,64C463.875,64.621 464.379,65.125 465,65.125C465.621,65.125 466.125,64.621 466.125,64C466.125,58.412 461.588,53.875 456,53.875C455.379,53.875 454.875,54.379 454.875,55C454.875,55.621 455.379,56.125 456,56.125Z"/></g></g></g><text x="0" y="63" fill="#000000" font-size="5px" font-weight="bold" font-family="'Helvetica Neue', Helvetica, Arial-Unicode, Arial, Sans-serif">Created by Mada Creative</text><text x="0" y="68" fill="#000000" font-size="5px" font-weight="bold" font-family="'Helvetica Neue', Helvetica, Arial-Unicode, Arial, Sans-serif">from the Noun Project</text></svg>