<svg xmlns="http://www.w3.org/2000/svg" data-name="Layer 1" viewBox="0 0 64 80" x="0px" y="0px"><title>Untitled-1</title><path d="M12,16.25a3.1,3.1,0,0,0-3.1,3.1v4.26a3.1,3.1,0,0,0,3.1,3.1H12a3.1,3.1,0,0,0,3.1-3.1V19.35A3.12,3.12,0,0,0,12,16.25Zm1.25,7.36A1.16,1.16,0,0,1,12,24.77H12a1.16,1.16,0,0,1-1.16-1.16V19.35A1.18,1.18,0,0,1,12,18.19a1.16,1.16,0,0,1,1.16,1.16Z"/><path d="M45.36,37.67a4.16,4.16,0,1,0-4.16-4.15A4.15,4.15,0,0,0,45.36,37.67Zm0-6.37a2.22,2.22,0,1,1-2.22,2.22A2.22,2.22,0,0,1,45.36,31.3Z"/><path d="M45.36,48.14A4.16,4.16,0,1,0,41.2,44,4.15,4.15,0,0,0,45.36,48.14Zm0-6.38A2.22,2.22,0,1,1,43.14,44,2.23,2.23,0,0,1,45.36,41.76Z"/><path d="M58.15,14H56.48V11.82a1,1,0,0,0-1-1H50.82V4.59a1,1,0,0,0-1-1H47.51V1a1,1,0,1,0-1.94,0V3.62H43.24a1,1,0,0,0-1,1v6.26H40.14V4.59a1,1,0,0,0-1-1H36.84V1A1,1,0,0,0,34.9,1V3.62H32.56a1,1,0,0,0-1,1v6.26H13V7.76a1,1,0,0,0-1.94,0V11a8.33,8.33,0,0,0-6.76,8.17V30.48a1,1,0,0,0,1,1l2.07,0v2.82a1,1,0,0,0,1,1H11.2V41.8a1,1,0,0,0,1.94,0V35.26h2.93a1,1,0,0,0,1-1V31.56h1.48a.94.94,0,0,0,.69-.28,1,1,0,0,0,.29-.69V22.7H34.59V46.9H3.36a1,1,0,0,0-1,1V63a1,1,0,0,0,1,1H55.51a1,1,0,0,0,1-1V27h1.67a3.46,3.46,0,0,0,3.46-3.46v-6A3.46,3.46,0,0,0,58.15,14ZM44.21,5.56h4.67v5.29H44.21Zm-10.68,0H38.2v5.29H33.53ZM15.1,33.32H9.23V31.49l5.87.05ZM35.56,48.83a1,1,0,0,0,1-1V21.73a1,1,0,0,0-1-1h-17a1,1,0,0,0-1,1v7.89l-9.28-.08h0l-2,0V19.17a6.38,6.38,0,0,1,6.38-6.38h42V15.4H41.33a1,1,0,0,0,0,1.94H54.54v2.41h-7.2a1,1,0,0,0,0,1.94h7.2V23.8H41.33a1,1,0,0,0,0,1.94H54.54V51.81H33.69a1,1,0,0,0,0,1.94H54.54v3H23.93v-7.9ZM22,48.83v7.9H4.33v-7.9ZM4.33,62.06V58.67H54.54v3.39ZM59.67,23.5A1.52,1.52,0,0,1,58.15,25H56.48V16h1.67a1.52,1.52,0,0,1,1.52,1.52Z"/><text x="0" y="79" fill="#000000" font-size="5px" font-weight="bold" font-family="'Helvetica Neue', Helvetica, Arial-Unicode, Arial, Sans-serif">Created by Rank Sol</text><text x="0" y="84" fill="#000000" font-size="5px" font-weight="bold" font-family="'Helvetica Neue', Helvetica, Arial-Unicode, Arial, Sans-serif">from the Noun Project</text></svg>